<?xml version="1.0" encoding="UTF-8" standalone="no"?>
<!-- Created with Inkscape (http://www.inkscape.org/) -->

<svg
   xmlns:dc="http://purl.org/dc/elements/1.1/"
   xmlns:cc="http://creativecommons.org/ns#"
   xmlns:rdf="http://www.w3.org/1999/02/22-rdf-syntax-ns#"
   xmlns:svg="http://www.w3.org/2000/svg"
   xmlns="http://www.w3.org/2000/svg"
   xmlns:sodipodi="http://sodipodi.sourceforge.net/DTD/sodipodi-0.dtd"
   xmlns:inkscape="http://www.inkscape.org/namespaces/inkscape"
   width="96"
   height="96"
   id="svg4946"
   version="1.1"
   inkscape:version="0.48.4 r9939"
   sodipodi:docname="spotlight-individuality.svg"
   inkscape:export-filename="/home/florian/Public/Work/rocketloop/assets/img/spotlight-usability.png"
   inkscape:export-xdpi="180"
   inkscape:export-ydpi="180">
  <defs
     id="defs4948">
    <clipPath
       clipPathUnits="userSpaceOnUse"
       id="clipPath4927">
      <path
         sodipodi:type="arc"
         style="fill:#ffffff;fill-opacity:1;stroke:#000000;stroke-width:0;stroke-linecap:round;stroke-miterlimit:4;stroke-opacity:1;stroke-dasharray:none"
         id="path4929"
         sodipodi:cx="176"
         sodipodi:cy="2704"
         sodipodi:rx="40"
         sodipodi:ry="40"
         d="m 216,2704 a 40,40 0 1 1 -80,0 40,40 0 1 1 80,0 z"
         transform="matrix(0.6363961,0.6363961,-0.6363961,0.6363961,1779.1525,-124.45858)" />
    </clipPath>
  </defs>
  <sodipodi:namedview
     id="base"
     pagecolor="#ffffff"
     bordercolor="#666666"
     borderopacity="1.0"
     inkscape:pageopacity="0.0"
     inkscape:pageshadow="2"
     inkscape:zoom="3.959798"
     inkscape:cx="109.37672"
     inkscape:cy="42.597043"
     inkscape:document-units="px"
     inkscape:current-layer="layer1"
     showgrid="false"
     inkscape:window-width="1920"
     inkscape:window-height="1025"
     inkscape:window-x="1366"
     inkscape:window-y="30"
     inkscape:window-maximized="1" />
  <metadata
     id="metadata4951">
    <rdf:RDF>
      <cc:Work
         rdf:about="">
        <dc:format>image/svg+xml</dc:format>
        <dc:type
           rdf:resource="http://purl.org/dc/dcmitype/StillImage" />
        <dc:title></dc:title>
      </cc:Work>
    </rdf:RDF>
  </metadata>
  <g
     inkscape:label="Layer 1"
     inkscape:groupmode="layer"
     id="layer1"
     transform="translate(0,-956.36218)">
    <g
       style="display:inline"
       id="g4911"
       transform="matrix(0.70710678,-0.70710678,0.70710678,0.70710678,-1280.4453,-83.181502)"
       clip-path="url(#clipPath4927)">
      <path
         id="rect4870"
         transform="translate(0,-995.63782)"
         d="m 160,2684 -14.78125,12.3125 c 0.0145,0.017 0.0169,0.045 0.0312,0.062 0.20133,0.244 0.41194,0.4903 0.59375,0.75 0.0351,0.05 0.0594,0.1054 0.0937,0.1562 0.15578,0.2301 0.29766,0.4465 0.4375,0.6876 0.0186,0.032 0.0442,0.062 0.0625,0.094 0.0751,0.1322 0.14861,0.2709 0.21875,0.4063 0.13607,0.2625 0.2582,0.539 0.375,0.8124 0.009,0.021 0.0222,0.041 0.0312,0.063 0.0685,0.1629 0.12606,0.3334 0.1875,0.5 0.0738,0.1989 0.15537,0.3899 0.21875,0.5937 0.0154,0.05 0.0165,0.1064 0.0312,0.1563 0.0989,0.3337 0.17998,0.6548 0.25,1 0.0546,0.2692 0.0887,0.537 0.125,0.8124 0.0169,0.1264 0.0496,0.2475 0.0625,0.375 0.0397,0.3976 0.0625,0.8109 0.0625,1.2188 0,0.3655 -0.0306,0.7365 -0.0625,1.0938 -0.004,0.041 0.004,0.084 0,0.125 -0.0126,0.1264 -0.046,0.2497 -0.0625,0.375 -0.0363,0.2754 -0.0704,0.5432 -0.125,0.8124 -0.07,0.3452 -0.15108,0.6663 -0.25,1 -0.015,0.051 -0.0156,0.106 -0.0312,0.1563 -0.0616,0.1984 -0.14725,0.3999 -0.21875,0.5937 -0.0623,0.168 -0.11802,0.3358 -0.1875,0.5 -0.009,0.021 -0.0222,0.041 -0.0312,0.063 -0.1168,0.2734 -0.23893,0.5499 -0.375,0.8124 -0.0872,0.1683 -0.18642,0.3366 -0.28125,0.5 -0.1344,0.2307 -0.28848,0.467 -0.4375,0.6876 -0.0348,0.051 -0.0582,0.1054 -0.0937,0.1562 -0.18529,0.2654 -0.38814,0.5009 -0.59375,0.75 -0.0144,0.017 -0.0167,0.045 -0.0312,0.062 L 160,2724 l 3,-8 0,-1 -5,-11 5,-11 0,-1 -3,-8 z M 142.90625,2698.25 136,2704 l 6.90625,5.75 C 144.20701,2708.1894 145,2706.1905 145,2704 c 0,-2.1905 -0.79299,-4.1894 -2.09375,-5.75 z"
         style="fill:#ffffff;fill-opacity:1;stroke:#000000;stroke-width:0;stroke-linecap:round;stroke-miterlimit:4;stroke-opacity:1"
         inkscape:connector-curvature="0" />
      <path
         sodipodi:nodetypes="ccccc"
         inkscape:connector-curvature="0"
         id="rect4889"
         d="m 163,2684 53,0 0,7 -50,0 z"
         style="fill:#ffffff;fill-opacity:1;stroke:#000000;stroke-width:0;stroke-linecap:round;stroke-miterlimit:4;stroke-opacity:1"
         transform="translate(0,-995.63782)" />
      <path
         sodipodi:nodetypes="ccccc"
         inkscape:connector-curvature="0"
         id="rect4891"
         d="m 166,2717 50,0 0,7 -53,0 z"
         style="fill:#ffffff;fill-opacity:1;stroke:#000000;stroke-width:0;stroke-linecap:round;stroke-miterlimit:4;stroke-opacity:1"
         transform="translate(0,-995.63782)" />
      <path
         sodipodi:nodetypes="cccccc"
         inkscape:connector-curvature="0"
         id="rect4893"
         d="m 166,2694 50,0 0,20 -50,0 -5,-10 z"
         style="fill:#ffffff;fill-opacity:1;stroke:#000000;stroke-width:0;stroke-linecap:round;stroke-miterlimit:4;stroke-opacity:1"
         transform="translate(0,-995.63782)" />
    </g>
  </g>
</svg>
