<?xml version="1.0" encoding="UTF-8" standalone="no"?>
<!-- Created with Inkscape (http://www.inkscape.org/) -->

<svg
   xmlns:dc="http://purl.org/dc/elements/1.1/"
   xmlns:cc="http://creativecommons.org/ns#"
   xmlns:rdf="http://www.w3.org/1999/02/22-rdf-syntax-ns#"
   xmlns:svg="http://www.w3.org/2000/svg"
   xmlns="http://www.w3.org/2000/svg"
   xmlns:sodipodi="http://sodipodi.sourceforge.net/DTD/sodipodi-0.dtd"
   xmlns:inkscape="http://www.inkscape.org/namespaces/inkscape"
   width="96"
   height="96"
   id="svg4946"
   version="1.1"
   inkscape:version="0.48.4 r9939"
   sodipodi:docname="New document 25">
  <defs
     id="defs4948" />
  <sodipodi:namedview
     id="base"
     pagecolor="#ffffff"
     bordercolor="#666666"
     borderopacity="1.0"
     inkscape:pageopacity="0.0"
     inkscape:pageshadow="2"
     inkscape:zoom="1.979899"
     inkscape:cx="200.97063"
     inkscape:cy="25.569394"
     inkscape:document-units="px"
     inkscape:current-layer="layer1"
     showgrid="false"
     inkscape:window-width="1920"
     inkscape:window-height="1025"
     inkscape:window-x="1366"
     inkscape:window-y="30"
     inkscape:window-maximized="1" />
  <metadata
     id="metadata4951">
    <rdf:RDF>
      <cc:Work
         rdf:about="">
        <dc:format>image/svg+xml</dc:format>
        <dc:type
           rdf:resource="http://purl.org/dc/dcmitype/StillImage" />
        <dc:title></dc:title>
      </cc:Work>
    </rdf:RDF>
  </metadata>
  <g
     inkscape:label="Layer 1"
     inkscape:groupmode="layer"
     id="layer1"
     transform="translate(0,-956.36218)">
    <path
       inkscape:connector-curvature="0"
       style="fill:#ffffff;fill-opacity:1;stroke:#000000;stroke-width:0;stroke-linecap:round;stroke-miterlimit:4;stroke-opacity:1;stroke-dasharray:none;display:inline"
       d="m 48.375001,972.73719 c -11.89284,0.1701 -23.79688,8.6719 -21.375,25.62499 0.33918,3.05262 -1.99806,5.99502 -4.21875,10.96882 -0.46459,1.2078 0.23632,2.0312 1.21875,2.0312 l 4,0 0.84375,10.9688 c 0.0986,1.282 1.20723,2.0312 2.15625,2.0312 l 9,0 2.75,10.9688 c 0.17097,0.684 0.84908,0.8533 1.5625,0.625 l 22.5625,-7.25 c 0.73099,-0.234 1.03532,-0.8642 0.9375,-1.5 l -1.8125,-11.8438 c 0,0 1.9911,-10.9968 3,-15 4.6733,-18.54311 -7.96487,-27.80611 -20.625,-27.62501 z m 0.125,5.625 c 8.56041,0 15.5,5.3726 15.5,12 0,4.5157 0,10.00001 -8,8.49999 l 0,5.50002 -4,1 0,-4 c 0,-3.00002 -1.59127,-6.18131 -6,-5.00001 -7.23966,1.93989 -13,0.6274 -13,-6 0,-6.6274 6.93959,-12 15.5,-12 z"
       id="path4793" />
  </g>
</svg>
