<?xml version="1.0" encoding="UTF-8" standalone="no"?>
<!-- Created with Inkscape (http://www.inkscape.org/) -->

<svg
   xmlns:dc="http://purl.org/dc/elements/1.1/"
   xmlns:cc="http://creativecommons.org/ns#"
   xmlns:rdf="http://www.w3.org/1999/02/22-rdf-syntax-ns#"
   xmlns:svg="http://www.w3.org/2000/svg"
   xmlns="http://www.w3.org/2000/svg"
   xmlns:sodipodi="http://sodipodi.sourceforge.net/DTD/sodipodi-0.dtd"
   xmlns:inkscape="http://www.inkscape.org/namespaces/inkscape"
   width="96"
   height="96"
   id="svg4946"
   version="1.1"
   inkscape:version="0.48.4 r9939"
   sodipodi:docname="spotlight-performance.svg"
   inkscape:export-filename="/home/florian/Public/Work/rocketloop/assets/img/spotlight-individuality.png"
   inkscape:export-xdpi="180"
   inkscape:export-ydpi="180">
  <defs
     id="defs4948">
    <clipPath
       clipPathUnits="userSpaceOnUse"
       id="clipPath4927">
      <path
         sodipodi:type="arc"
         style="fill:#ffffff;fill-opacity:1;stroke:#000000;stroke-width:0;stroke-linecap:round;stroke-miterlimit:4;stroke-opacity:1;stroke-dasharray:none"
         id="path4929"
         sodipodi:cx="176"
         sodipodi:cy="2704"
         sodipodi:rx="40"
         sodipodi:ry="40"
         d="m 216,2704 a 40,40 0 1 1 -80,0 40,40 0 1 1 80,0 z"
         transform="matrix(0.6363961,0.6363961,-0.6363961,0.6363961,1779.1525,-124.45858)" />
    </clipPath>
  </defs>
  <sodipodi:namedview
     id="base"
     pagecolor="#ffffff"
     bordercolor="#666666"
     borderopacity="1.0"
     inkscape:pageopacity="0.0"
     inkscape:pageshadow="2"
     inkscape:zoom="3.959798"
     inkscape:cx="109.37672"
     inkscape:cy="42.597043"
     inkscape:document-units="px"
     inkscape:current-layer="layer1"
     showgrid="false"
     inkscape:window-width="1920"
     inkscape:window-height="1025"
     inkscape:window-x="1366"
     inkscape:window-y="30"
     inkscape:window-maximized="1" />
  <metadata
     id="metadata4951">
    <rdf:RDF>
      <cc:Work
         rdf:about="">
        <dc:format>image/svg+xml</dc:format>
        <dc:type
           rdf:resource="http://purl.org/dc/dcmitype/StillImage" />
        <dc:title></dc:title>
      </cc:Work>
    </rdf:RDF>
  </metadata>
  <g
     inkscape:label="Layer 1"
     inkscape:groupmode="layer"
     id="layer1"
     transform="translate(0,-956.36218)">
    <g
       transform="translate(-640,-512.00005)"
       style="display:inline"
       id="g5071">
      <path
         inkscape:connector-curvature="0"
         transform="translate(0,-995.63782)"
         id="path4542"
         d="m 688,2484 c -15.46397,0 -28,12.536 -28,28 0,8.4569 3.76059,16.0222 9.6875,21.1562 l 2.8125,-2.8437 c -5.19704,-4.4024 -8.5,-10.968 -8.5,-18.3125 0,-13.2548 10.74517,-24 24,-24 13.25483,0 24,10.7452 24,24 0,7.3445 -3.30296,13.9101 -8.5,18.3125 l 2.8125,2.8437 C 712.23941,2528.0222 716,2520.4569 716,2512 c 0,-15.464 -12.53603,-28 -28,-28 z"
         style="fill:#ffffff;fill-opacity:1;stroke:#000000;stroke-width:0;stroke-linecap:round;stroke-miterlimit:4;stroke-opacity:1;stroke-dasharray:none" />
      <rect
         ry="2"
         rx="2"
         transform="translate(0,-995.63782)"
         y="2510"
         x="662"
         height="4"
         width="6"
         id="rect4547"
         style="fill:#ffffff;fill-opacity:1;stroke:#000000;stroke-width:0;stroke-linecap:round;stroke-miterlimit:4;stroke-opacity:1;stroke-dasharray:none" />
      <rect
         style="fill:#ffffff;fill-opacity:1;stroke:#000000;stroke-width:0;stroke-linecap:round;stroke-miterlimit:4;stroke-opacity:1;stroke-dasharray:none"
         id="rect4549"
         width="6"
         height="4"
         x="708"
         y="1514.3622"
         rx="2"
         ry="2" />
      <rect
         transform="matrix(0,-1,1,0,0,0)"
         ry="2"
         rx="2"
         y="686"
         x="-1496.3622"
         height="4"
         width="6"
         id="rect4554"
         style="fill:#ffffff;fill-opacity:1;stroke:#000000;stroke-width:0;stroke-linecap:round;stroke-miterlimit:4;stroke-opacity:1;stroke-dasharray:none" />
      <rect
         style="fill:#ffffff;fill-opacity:1;stroke:#000000;stroke-width:0;stroke-linecap:round;stroke-miterlimit:4;stroke-opacity:1;stroke-dasharray:none"
         id="rect4556"
         width="6"
         height="4"
         x="-611.74054"
         y="1556.7195"
         transform="matrix(0.70710678,-0.70710678,0.70710678,0.70710678,0,0)"
         rx="2"
         ry="2" />
      <rect
         transform="matrix(0.70710678,-0.70710678,0.70710678,0.70710678,0,0)"
         ry="2"
         rx="2"
         y="1556.7195"
         x="-565.74054"
         height="4"
         width="6"
         id="rect4558"
         style="fill:#ffffff;fill-opacity:1;stroke:#000000;stroke-width:0;stroke-linecap:round;stroke-miterlimit:4;stroke-opacity:1;stroke-dasharray:none" />
      <rect
         ry="2"
         rx="2"
         transform="matrix(-0.70710678,-0.70710678,0.70710678,-0.70710678,0,0)"
         y="-587.74054"
         x="-1584.7195"
         height="4"
         width="6"
         id="rect4560"
         style="fill:#ffffff;fill-opacity:1;stroke:#000000;stroke-width:0;stroke-linecap:round;stroke-miterlimit:4;stroke-opacity:1;stroke-dasharray:none" />
      <rect
         style="fill:#ffffff;fill-opacity:1;stroke:#000000;stroke-width:0;stroke-linecap:round;stroke-miterlimit:4;stroke-opacity:1;stroke-dasharray:none"
         id="rect4562"
         width="6"
         height="4"
         x="-1538.7195"
         y="-587.74054"
         rx="2"
         ry="2"
         transform="matrix(-0.70710678,-0.70710678,0.70710678,-0.70710678,0,0)" />
      <path
         inkscape:connector-curvature="0"
         id="path4570"
         transform="translate(0,-995.63782)"
         d="m 699.3125,2500.6875 c 0,0 -12.59415,6.9066 -14.15625,8.4687 -1.56209,1.5622 -1.56207,4.1254 0,5.6876 1.56207,1.5621 4.1254,1.5621 5.6875,0 1.56209,-1.5622 8.46875,-14.1563 8.46875,-14.1563 z M 688,2510 c 1.10457,0 2,0.8954 2,2 0,1.1046 -0.89543,2 -2,2 -1.10457,0 -2,-0.8954 -2,-2 0,-1.1046 0.89543,-2 2,-2 z"
         style="fill:#ffffff;fill-opacity:1;stroke:#000000;stroke-width:0;stroke-linecap:round;stroke-miterlimit:4;stroke-opacity:1" />
    </g>
  </g>
</svg>
