<?xml version="1.0" encoding="UTF-8" standalone="no"?>
<!-- Created with Inkscape (http://www.inkscape.org/) -->

<svg
   xmlns:dc="http://purl.org/dc/elements/1.1/"
   xmlns:cc="http://creativecommons.org/ns#"
   xmlns:rdf="http://www.w3.org/1999/02/22-rdf-syntax-ns#"
   xmlns:svg="http://www.w3.org/2000/svg"
   xmlns="http://www.w3.org/2000/svg"
   xmlns:xlink="http://www.w3.org/1999/xlink"
   xmlns:sodipodi="http://sodipodi.sourceforge.net/DTD/sodipodi-0.dtd"
   xmlns:inkscape="http://www.inkscape.org/namespaces/inkscape"
   width="1920"
   height="900"
   id="svg2"
   version="1.1"
   inkscape:version="0.48.4 r9939"
   sodipodi:docname="New document 1">
  <defs
     id="defs4">
    <filter
       inkscape:collect="always"
       id="filter3797"
       x="-0.36"
       width="1.72"
       y="-0.36"
       height="1.72">
      <feGaussianBlur
         inkscape:collect="always"
         stdDeviation="0.525"
         id="feGaussianBlur3799" />
    </filter>
  </defs>
  <sodipodi:namedview
     id="base"
     pagecolor="#ffffff"
     bordercolor="#666666"
     borderopacity="1.0"
     inkscape:pageopacity="0.0"
     inkscape:pageshadow="2"
     inkscape:zoom="0.5"
     inkscape:cx="841.66279"
     inkscape:cy="444.43744"
     inkscape:document-units="px"
     inkscape:current-layer="layer3"
     showgrid="false"
     inkscape:snap-page="true"
     inkscape:window-width="1920"
     inkscape:window-height="1025"
     inkscape:window-x="1366"
     inkscape:window-y="30"
     inkscape:window-maximized="1" />
  <metadata
     id="metadata7">
    <rdf:RDF>
      <cc:Work
         rdf:about="">
        <dc:format>image/svg+xml</dc:format>
        <dc:type
           rdf:resource="http://purl.org/dc/dcmitype/StillImage" />
        <dc:title></dc:title>
      </cc:Work>
    </rdf:RDF>
  </metadata>
  <g
     inkscape:label="Background"
     inkscape:groupmode="layer"
     id="layer1"
     transform="translate(0,-152.36218)"
     style="display:inline"
     sodipodi:insensitive="true">
    <rect
       style="fill:#035975;fill-opacity:1;stroke:none"
       id="rect2985"
       width="1920"
       height="900"
       x="0"
       y="0"
       transform="translate(0,152.36218)"
       rx="2"
       ry="2" />
  </g>
  <g
     inkscape:groupmode="layer"
     id="layer3"
     inkscape:label="Stars 2"
     style="display:inline">
    <rect
       style="fill:#035975;fill-opacity:1;stroke:none;display:inline"
       id="rect3755"
       width="195.71428"
       height="295.71429"
       x="-457.14285"
       y="47.142857"
       rx="2"
       ry="2" />
    <path
       sodipodi:type="arc"
       style="opacity:0.7;fill:#ffffff;fill-opacity:1;stroke:none;display:inline;filter:url(#filter3797)"
       id="path3779"
       sodipodi:cx="-377.25"
       sodipodi:cy="91.5"
       sodipodi:rx="1.75"
       sodipodi:ry="1.75"
       d="m -375.5,91.5 a 1.75,1.75 0 1 1 -3.5,0 1.75,1.75 0 1 1 3.5,0 z"
       transform="matrix(1.2349192,0,0,1.2349192,88.623269,-21.495107)" />
    <path
       transform="matrix(1.3737542,0,0,1.3737542,140.99876,-17.19851)"
       d="m -375.5,91.5 a 1.75,1.75 0 1 1 -3.5,0 1.75,1.75 0 1 1 3.5,0 z"
       sodipodi:ry="1.75"
       sodipodi:rx="1.75"
       sodipodi:cy="91.5"
       sodipodi:cx="-377.25"
       id="path3801"
       style="fill:#ffffff;fill-opacity:1;stroke:none;display:inline;filter:url(#filter3797)"
       sodipodi:type="arc" />
    <use
       id="use4231"
       xlink:href="#path3801"
       transform="matrix(1.046048,0,0,1.046048,706.61969,522.1799)"
       x="0"
       y="0"
       width="1920"
       height="900" />
    <use
       id="use4233"
       xlink:href="#path3801"
       transform="matrix(1.1233918,0,0,1.1233918,1226.6444,229.94371)"
       x="0"
       y="0"
       width="1920"
       height="900" />
    <use
       id="use4235"
       xlink:href="#path3801"
       transform="matrix(1.1068047,0,0,1.1068047,2201.1547,413.36778)"
       x="0"
       y="0"
       width="1920"
       height="900" />
    <use
       id="use4237"
       xlink:href="#path3801"
       transform="matrix(1.035794,0,0,1.035794,1708.7298,154.63944)"
       x="0"
       y="0"
       width="1920"
       height="900" />
    <use
       id="use4239"
       xlink:href="#path3801"
       transform="matrix(0.95274265,0,0,0.95274265,977.27754,141.58917)"
       x="0"
       y="0"
       width="1920"
       height="900" />
    <use
       id="use4241"
       xlink:href="#path3801"
       transform="matrix(0.8717646,0,0,0.8717646,822.88074,203.67694)"
       x="0"
       y="0"
       width="1920"
       height="900" />
    <use
       id="use4243"
       xlink:href="#path3779"
       transform="matrix(1.0653861,0,0,1.0653861,1588.1597,642.92539)"
       x="0"
       y="0"
       width="1920"
       height="900" />
    <use
       id="use4245"
       xlink:href="#path3779"
       transform="matrix(1.0705654,0,0,1.0705654,2084.0775,299.20909)"
       x="0"
       y="0"
       width="1920"
       height="900" />
    <use
       id="use4247"
       xlink:href="#path3779"
       transform="matrix(0.91966985,0,0,0.91966985,1999.7178,333.89168)"
       x="0"
       y="0"
       width="1920"
       height="900" />
    <use
       id="use4249"
       xlink:href="#path3779"
       transform="matrix(1.0972821,0,0,1.0972821,2026.3749,247.76965)"
       x="0"
       y="0"
       width="1920"
       height="900" />
    <use
       id="use4251"
       xlink:href="#path3779"
       transform="matrix(1.0736959,0,0,1.0736959,1595.7292,159.81402)"
       x="0"
       y="0"
       width="1920"
       height="900" />
    <use
       id="use4253"
       xlink:href="#path3779"
       transform="matrix(0.89751902,0,0,0.89751902,1544.7652,167.59783)"
       x="0"
       y="0"
       width="1920"
       height="900" />
    <use
       id="use4255"
       xlink:href="#path3779"
       transform="matrix(0.93042728,0,0,0.93042728,1556.4746,96.864416)"
       x="0"
       y="0"
       width="1920"
       height="900" />
    <use
       id="use4257"
       xlink:href="#path3779"
       transform="matrix(0.95098214,0,0,0.95098214,1859.5564,584.86993)"
       x="0"
       y="0"
       width="1920"
       height="900" />
    <use
       id="use4259"
       xlink:href="#path3779"
       transform="matrix(1.0246323,0,0,1.0246323,2140.5377,740.00464)"
       x="0"
       y="0"
       width="1920"
       height="900" />
    <use
       id="use4261"
       xlink:href="#path3779"
       transform="matrix(0.98947013,0,0,0.98947013,845.27717,496.83402)"
       x="0"
       y="0"
       width="1920"
       height="900" />
    <use
       id="use4263"
       xlink:href="#path3779"
       transform="matrix(1.1411664,0,0,1.1411664,1087.3758,299.15897)"
       x="0"
       y="0"
       width="1920"
       height="900" />
    <use
       id="use4265"
       xlink:href="#path3779"
       transform="matrix(0.96872071,0,0,0.96872071,583.36488,278.12025)"
       x="0"
       y="0"
       width="1920"
       height="900" />
    <use
       id="use4267"
       xlink:href="#path3779"
       transform="matrix(0.94416827,0,0,0.94416827,563.28882,305.36009)"
       x="0"
       y="0"
       width="1920"
       height="900" />
    <use
       id="use4269"
       xlink:href="#path3779"
       transform="matrix(1.0068911,0,0,1.0068911,484.39237,284.73633)"
       x="0"
       y="0"
       width="1920"
       height="900" />
    <use
       id="use4271"
       xlink:href="#path3779"
       transform="matrix(1.1527734,0,0,1.1527734,531.54687,263.66529)"
       x="0"
       y="0"
       width="1920"
       height="900" />
    <use
       id="use4273"
       xlink:href="#path3779"
       transform="matrix(1.1034312,0,0,1.1034312,419.03214,623.93127)"
       x="0"
       y="0"
       width="1920"
       height="900" />
    <use
       id="use4275"
       xlink:href="#path3779"
       transform="matrix(1.0495278,0,0,1.0495278,442.30674,583.939)"
       x="0"
       y="0"
       width="1920"
       height="900" />
    <use
       id="use4277"
       xlink:href="#path3779"
       transform="matrix(0.93309033,0,0,0.93309033,1817.4247,413.23819)"
       x="0"
       y="0"
       width="1920"
       height="900" />
    <use
       id="use4279"
       xlink:href="#path3779"
       transform="matrix(1.0001829,0,0,1.0001829,1884.413,255.64234)"
       x="0"
       y="0"
       width="1920"
       height="900" />
    <use
       id="use4281"
       xlink:href="#path3779"
       transform="matrix(0.88387372,0,0,0.88387372,1489.6918,427.01728)"
       x="0"
       y="0"
       width="1920"
       height="900" />
    <use
       id="use4283"
       xlink:href="#path3779"
       transform="matrix(1.0224344,0,0,1.0224344,1517.652,582.93839)"
       x="0"
       y="0"
       width="1920"
       height="900" />
    <use
       id="use4285"
       xlink:href="#path3779"
       transform="matrix(1.0803161,0,0,1.0803161,1521.953,651.11094)"
       x="0"
       y="0"
       width="1920"
       height="900" />
    <use
       id="use4307"
       xlink:href="#path3779"
       transform="matrix(0.87331637,0,0,0.87331637,541.48533,770.17204)"
       x="0"
       y="0"
       width="1920"
       height="900" />
    <use
       id="use4309"
       xlink:href="#path3779"
       transform="matrix(1.1461543,0,0,1.1461543,775.79124,742.88836)"
       x="0"
       y="0"
       width="1920"
       height="900" />
    <use
       id="use4311"
       xlink:href="#path3779"
       transform="matrix(0.91304588,0,0,0.91304588,744.30212,720.44674)"
       x="0"
       y="0"
       width="1920"
       height="900" />
    <use
       id="use4313"
       xlink:href="#path3779"
       transform="matrix(1.1758586,0,0,1.1758586,780.60649,647.70124)"
       x="0"
       y="0"
       width="1920"
       height="900" />
    <use
       id="use4315"
       xlink:href="#path3779"
       transform="matrix(1.151868,0,0,1.151868,825.00918,583.83626)"
       x="0"
       y="0"
       width="1920"
       height="900" />
    <use
       id="use4317"
       xlink:href="#path3779"
       transform="matrix(0.8015133,0,0,0.8015133,718.64102,641.60786)"
       x="0"
       y="0"
       width="1920"
       height="900" />
    <use
       id="use4319"
       xlink:href="#path3779"
       transform="matrix(0.90932813,0,0,0.90932813,1054.8274,41.937661)"
       x="0"
       y="0"
       width="1920"
       height="900" />
    <use
       id="use4321"
       xlink:href="#path3779"
       transform="matrix(0.88645041,0,0,0.88645041,1414.5843,3.4628646)"
       x="0"
       y="0"
       width="1920"
       height="900" />
    <use
       id="use4323"
       xlink:href="#path3779"
       transform="matrix(0.88612644,0,0,0.88612644,1522.6544,42.914712)"
       x="0"
       y="0"
       width="1920"
       height="900" />
    <use
       id="use4325"
       xlink:href="#path3779"
       transform="matrix(1.1742115,0,0,1.1742115,1865.5486,-23.537627)"
       x="0"
       y="0"
       width="1920"
       height="900" />
    <use
       id="use4327"
       xlink:href="#path3779"
       transform="matrix(1.1448157,0,0,1.1448157,1902.5212,-3.4899849)"
       x="0"
       y="0"
       width="1920"
       height="900" />
    <use
       id="use4329"
       xlink:href="#path3779"
       transform="matrix(0.89619144,0,0,0.89619144,1760.6473,27.145317)"
       x="0"
       y="0"
       width="1920"
       height="900" />
    <use
       id="use4331"
       xlink:href="#path3779"
       transform="matrix(1.1725889,0,0,1.1725889,1841.8587,6.6423125)"
       x="0"
       y="0"
       width="1920"
       height="900" />
    <use
       id="use4333"
       xlink:href="#path3779"
       transform="matrix(1.1093997,0,0,1.1093997,1973.4929,702.16436)"
       x="0"
       y="0"
       width="1920"
       height="900" />
    <use
       id="use4335"
       xlink:href="#path3779"
       transform="matrix(1.1679375,0,0,1.1679375,2094.6732,522.56645)"
       x="0"
       y="0"
       width="1920"
       height="900" />
    <use
       id="use4337"
       xlink:href="#path3779"
       transform="matrix(0.94028006,0,0,0.94028006,2072.3312,574.37601)"
       x="0"
       y="0"
       width="1920"
       height="900" />
    <use
       id="use4339"
       xlink:href="#path3779"
       transform="matrix(0.96856292,0,0,0.96856292,2054.0388,634.67049)"
       x="0"
       y="0"
       width="1920"
       height="900" />
    <use
       id="use4341"
       xlink:href="#path3779"
       transform="matrix(0.9841995,0,0,0.9841995,691.97212,53.16306)"
       x="0"
       y="0"
       width="1920"
       height="900" />
    <use
       id="use4343"
       xlink:href="#path3779"
       transform="matrix(0.98118544,0,0,0.98118544,743.59939,56.796712)"
       x="0"
       y="0"
       width="1920"
       height="900" />
    <use
       id="use4345"
       xlink:href="#path3779"
       transform="matrix(0.96571738,0,0,0.96571738,742.48506,0.61109046)"
       x="0"
       y="0"
       width="1920"
       height="900" />
    <use
       id="use4347"
       xlink:href="#path3779"
       transform="matrix(1.1967015,0,0,1.1967015,1325.8246,426.23361)"
       x="0"
       y="0"
       width="1920"
       height="900" />
    <use
       id="use4349"
       xlink:href="#path3779"
       transform="matrix(0.9776358,0,0,0.9776358,1438.7705,315.43182)"
       x="0"
       y="0"
       width="1920"
       height="900" />
    <use
       id="use4351"
       xlink:href="#path3779"
       transform="matrix(1.139288,0,0,1.139288,1210.6488,622.65831)"
       x="0"
       y="0"
       width="1920"
       height="900" />
    <use
       id="use4353"
       xlink:href="#path3779"
       transform="matrix(0.92384048,0,0,0.92384048,1199.931,593.94058)"
       x="0"
       y="0"
       width="1920"
       height="900" />
    <use
       id="use4355"
       xlink:href="#path3779"
       transform="matrix(1.0580222,0,0,1.0580222,1334.2101,573.5042)"
       x="0"
       y="0"
       width="1920"
       height="900" />
    <use
       id="use4357"
       xlink:href="#path3779"
       transform="matrix(0.97930052,0,0,0.97930052,1018.6479,545.01737)"
       x="0"
       y="0"
       width="1920"
       height="900" />
    <use
       id="use4359"
       xlink:href="#path3779"
       transform="matrix(0.99043691,0,0,0.99043691,2158.1183,53.367925)"
       x="0"
       y="0"
       width="1920"
       height="900" />
    <use
       id="use4361"
       xlink:href="#path3779"
       transform="matrix(1.0610562,0,0,1.0610562,504.11918,113.20217)"
       x="0"
       y="0"
       width="1920"
       height="900" />
    <use
       id="use4363"
       xlink:href="#path3779"
       transform="matrix(1.0989607,0,0,1.0989607,1202.9479,116.36396)"
       x="0"
       y="0"
       width="1920"
       height="900" />
    <use
       id="use4365"
       xlink:href="#path3779"
       transform="matrix(0.80515867,0,0,0.80515867,1154.4148,167.28657)"
       x="0"
       y="0"
       width="1920"
       height="900" />
    <use
       id="use4367"
       xlink:href="#path3779"
       transform="matrix(1.0391558,0,0,1.0391558,1306.7474,139.22256)"
       x="0"
       y="0"
       width="1920"
       height="900" />
    <use
       id="use4369"
       xlink:href="#path3779"
       transform="matrix(0.96958779,0,0,0.96958779,1304.8376,121.39035)"
       x="0"
       y="0"
       width="1920"
       height="900" />
    <use
       id="use4371"
       xlink:href="#path3779"
       transform="matrix(0.94922211,0,0,0.94922211,1269.6857,180.35288)"
       x="0"
       y="0"
       width="1920"
       height="900" />
  </g>
  <g
     inkscape:groupmode="layer"
     id="layer2"
     inkscape:label="Stars 1"
     style="display:inline">
    <use
       id="use4184"
       xlink:href="#path3801"
       transform="matrix(1.1595117,0,0,1.1595117,718.15626,198.62619)"
       x="0"
       y="0"
       width="1920"
       height="900" />
    <use
       id="use4186"
       xlink:href="#path3801"
       transform="matrix(1.105361,0,0,1.105361,1519.1345,396.15925)"
       x="0"
       y="0"
       width="1920"
       height="900" />
    <use
       id="use4188"
       xlink:href="#path3801"
       transform="matrix(1.0799886,0,0,1.0799886,1767.7686,545.88413)"
       x="0"
       y="0"
       width="1920"
       height="900" />
    <use
       id="use4190"
       xlink:href="#path3801"
       transform="matrix(1.0472004,0,0,1.0472004,1365.5733,111.20221)"
       x="0"
       y="0"
       width="1920"
       height="900" />
    <use
       id="use4192"
       xlink:href="#path3801"
       transform="matrix(0.87505134,0,0,0.87505134,1045.909,76.286744)"
       x="0"
       y="0"
       width="1920"
       height="900" />
    <use
       id="use4194"
       xlink:href="#path3801"
       transform="matrix(0.8361644,0,0,0.8361644,1985.5039,148.21878)"
       x="0"
       y="0"
       width="1920"
       height="900" />
    <use
       id="use4196"
       xlink:href="#path3801"
       transform="matrix(1.1026069,0,0,1.1026069,2043.4882,91.815529)"
       x="0"
       y="0"
       width="1920"
       height="900" />
    <use
       id="use4204"
       xlink:href="#path3801"
       transform="matrix(0.97146458,0,0,0.97146458,1133.6086,624.19995)"
       x="0"
       y="0"
       width="1920"
       height="900" />
    <use
       id="use4206"
       xlink:href="#path3801"
       transform="matrix(0.82151959,0,0,0.82151959,925.6659,625.87057)"
       x="0"
       y="0"
       width="1920"
       height="900" />
    <use
       id="use4208"
       xlink:href="#path3779"
       transform="matrix(1.1970374,0,0,1.1970374,682.84902,444.11976)"
       x="0"
       y="0"
       width="1920"
       height="900" />
    <use
       id="use4210"
       xlink:href="#path3779"
       transform="matrix(0.80553311,0,0,0.80553311,1140.7431,339.0441)"
       x="0"
       y="0"
       width="1920"
       height="900" />
    <use
       id="use4212"
       xlink:href="#path3779"
       transform="matrix(0.91267873,0,0,0.91267873,1224.6831,528.19662)"
       x="0"
       y="0"
       width="1920"
       height="900" />
    <use
       id="use4214"
       xlink:href="#path3779"
       transform="matrix(0.93485259,0,0,0.93485259,1995.2186,48.05466)"
       x="0"
       y="0"
       width="1920"
       height="900" />
    <use
       id="use4216"
       xlink:href="#path3779"
       transform="matrix(1.1480172,0,0,1.1480172,2145.1079,-27.751688)"
       x="0"
       y="0"
       width="1920"
       height="900" />
    <use
       id="use4218"
       xlink:href="#path3779"
       transform="matrix(1.1874522,0,0,1.1874522,2192.2998,-11.246657)"
       x="0"
       y="0"
       width="1920"
       height="900" />
    <use
       id="use4220"
       xlink:href="#path3779"
       transform="matrix(1.0324456,0,0,1.0324456,1957.8947,316.57469)"
       x="0"
       y="0"
       width="1920"
       height="900" />
    <use
       id="use4222"
       xlink:href="#path3779"
       transform="matrix(1.1118429,0,0,1.1118429,620.54713,15.452327)"
       x="0"
       y="0"
       width="1920"
       height="900" />
    <use
       id="use4224"
       xlink:href="#path3779"
       transform="matrix(1.1982491,0,0,1.1982491,623.1868,19.736558)"
       x="0"
       y="0"
       width="1920"
       height="900" />
    <use
       id="use4226"
       xlink:href="#path3779"
       transform="matrix(1.1010293,0,0,1.1010293,662.84623,15.353168)"
       x="0"
       y="0"
       width="1920"
       height="900" />
  </g>
</svg>
