<?xml version="1.0" encoding="UTF-8" standalone="no"?>
<!-- Created with Inkscape (http://www.inkscape.org/) -->

<svg
   xmlns:dc="http://purl.org/dc/elements/1.1/"
   xmlns:cc="http://creativecommons.org/ns#"
   xmlns:rdf="http://www.w3.org/1999/02/22-rdf-syntax-ns#"
   xmlns:svg="http://www.w3.org/2000/svg"
   xmlns="http://www.w3.org/2000/svg"
   xmlns:sodipodi="http://sodipodi.sourceforge.net/DTD/sodipodi-0.dtd"
   xmlns:inkscape="http://www.inkscape.org/namespaces/inkscape"
   width="256"
   height="160"
   id="svg4558"
   version="1.1"
   inkscape:version="0.48.4 r9939"
   sodipodi:docname="concept-launch.svg"
   inkscape:export-filename="/home/florian/Public/Work/rocketloop/assets/img/concept-launch.png"
   inkscape:export-xdpi="180"
   inkscape:export-ydpi="180">
  <defs
     id="defs4560" />
  <sodipodi:namedview
     id="base"
     pagecolor="#ffffff"
     bordercolor="#666666"
     borderopacity="1.0"
     inkscape:pageopacity="0.0"
     inkscape:pageshadow="2"
     inkscape:zoom="1.979899"
     inkscape:cx="113.84437"
     inkscape:cy="101.30148"
     inkscape:document-units="px"
     inkscape:current-layer="layer1"
     showgrid="false"
     inkscape:window-width="1920"
     inkscape:window-height="1025"
     inkscape:window-x="1366"
     inkscape:window-y="30"
     inkscape:window-maximized="1" />
  <metadata
     id="metadata4563">
    <rdf:RDF>
      <cc:Work
         rdf:about="">
        <dc:format>image/svg+xml</dc:format>
        <dc:type
           rdf:resource="http://purl.org/dc/dcmitype/StillImage" />
        <dc:title></dc:title>
      </cc:Work>
    </rdf:RDF>
  </metadata>
  <g
     inkscape:label="Layer 1"
     inkscape:groupmode="layer"
     id="layer1"
     transform="translate(0,-892.36218)">
    <g
       id="g4244"
       style="fill:#e6e6e6;fill-opacity:1;display:inline"
       transform="translate(-815.79999,60.362177)">
      <path
         sodipodi:type="arc"
         style="fill:#e6e6e6;fill-opacity:1;stroke:none"
         id="path4212"
         sodipodi:cx="932"
         sodipodi:cy="964"
         sodipodi:rx="12"
         sodipodi:ry="12"
         d="m 944,964 c 0,6.62742 -5.37258,12 -12,12 -6.62742,0 -12,-5.37258 -12,-12 0,-6.62742 5.37258,-12 12,-12 6.62742,0 12,5.37258 12,12 z"
         transform="matrix(0.88888889,0,0,0.88888889,102.88888,104.44444)" />
      <path
         sodipodi:type="arc"
         style="fill:#e6e6e6;fill-opacity:1;stroke:none"
         id="path4214"
         sodipodi:cx="932"
         sodipodi:cy="964"
         sodipodi:rx="12"
         sodipodi:ry="12"
         d="m 944,964 c 0,6.62742 -5.37258,12 -12,12 -6.62742,0 -12,-5.37258 -12,-12 0,-6.62742 5.37258,-12 12,-12 6.62742,0 12,5.37258 12,12 z"
         transform="matrix(0.88888889,0,0,0.88888889,126.88888,101.77777)" />
      <path
         transform="matrix(0.66666627,0,0,0.66666627,298.00037,320.00039)"
         d="m 944,964 c 0,6.62742 -5.37258,12 -12,12 -6.62742,0 -12,-5.37258 -12,-12 0,-6.62742 5.37258,-12 12,-12 6.62742,0 12,5.37258 12,12 z"
         sodipodi:ry="12"
         sodipodi:rx="12"
         sodipodi:cy="964"
         sodipodi:cx="932"
         id="path4216"
         style="fill:#e6e6e6;fill-opacity:1;stroke:none"
         sodipodi:type="arc" />
      <path
         sodipodi:type="arc"
         style="fill:#e6e6e6;fill-opacity:1;stroke:none"
         id="path4218"
         sodipodi:cx="932"
         sodipodi:cy="964"
         sodipodi:rx="12"
         sodipodi:ry="12"
         d="m 944,964 c 0,6.62742 -5.37258,12 -12,12 -6.62742,0 -12,-5.37258 -12,-12 0,-6.62742 5.37258,-12 12,-12 6.62742,0 12,5.37258 12,12 z"
         transform="matrix(0.83333333,0,0,0.83333333,188,165.33333)" />
      <path
         transform="matrix(0.83333333,0,0,0.83333333,200.66667,168.66667)"
         d="m 944,964 c 0,6.62742 -5.37258,12 -12,12 -6.62742,0 -12,-5.37258 -12,-12 0,-6.62742 5.37258,-12 12,-12 6.62742,0 12,5.37258 12,12 z"
         sodipodi:ry="12"
         sodipodi:rx="12"
         sodipodi:cy="964"
         sodipodi:cx="932"
         id="path4220"
         style="fill:#e6e6e6;fill-opacity:1;stroke:none"
         sodipodi:type="arc" />
      <path
         sodipodi:type="arc"
         style="fill:#e6e6e6;fill-opacity:1;stroke:none"
         id="path4222"
         sodipodi:cx="932"
         sodipodi:cy="964"
         sodipodi:rx="12"
         sodipodi:ry="12"
         d="m 944,964 c 0,6.62742 -5.37258,12 -12,12 -6.62742,0 -12,-5.37258 -12,-12 0,-6.62742 5.37258,-12 12,-12 6.62742,0 12,5.37258 12,12 z"
         transform="translate(63.333787,9.3338)" />
      <path
         sodipodi:type="arc"
         style="fill:#e6e6e6;fill-opacity:1;stroke:none"
         id="path4224"
         sodipodi:cx="932"
         sodipodi:cy="964"
         sodipodi:rx="12"
         sodipodi:ry="12"
         d="m 944,964 c 0,6.62742 -5.37258,12 -12,12 -6.62742,0 -12,-5.37258 -12,-12 0,-6.62742 5.37258,-12 12,-12 6.62742,0 12,5.37258 12,12 z"
         transform="translate(-16.666573,12.000093)" />
      <path
         transform="matrix(0.83333333,0,0,0.83333333,124.66667,175.33333)"
         d="m 944,964 c 0,6.62742 -5.37258,12 -12,12 -6.62742,0 -12,-5.37258 -12,-12 0,-6.62742 5.37258,-12 12,-12 6.62742,0 12,5.37258 12,12 z"
         sodipodi:ry="12"
         sodipodi:rx="12"
         sodipodi:cy="964"
         sodipodi:cx="932"
         id="path4226"
         style="fill:#e6e6e6;fill-opacity:1;stroke:none"
         sodipodi:type="arc" />
      <path
         transform="matrix(1.1111103,0,0,1.1111103,-150.88813,-100.44367)"
         d="m 944,964 c 0,6.62742 -5.37258,12 -12,12 -6.62742,0 -12,-5.37258 -12,-12 0,-6.62742 5.37258,-12 12,-12 6.62742,0 12,5.37258 12,12 z"
         sodipodi:ry="12"
         sodipodi:rx="12"
         sodipodi:cy="964"
         sodipodi:cx="932"
         id="path4228"
         style="fill:#e6e6e6;fill-opacity:1;stroke:none"
         sodipodi:type="arc" />
      <path
         style="fill:#e6e6e6;fill-opacity:1;stroke:none"
         d="m 936.66667,952 16,0 66.66663,40 -159.99997,0 0,-21.33333 42.66667,4 z"
         id="path4230"
         inkscape:connector-curvature="0"
         sodipodi:nodetypes="ccccccc" />
      <path
         inkscape:connector-curvature="0"
         style="fill:#e6e6e6;fill-opacity:1;stroke:none"
         d="m 856.66667,973.33333 c -6.62742,0 -12,5.37259 -12,12 0,2.4649 0.72549,4.76078 2,6.66667 l 20,0 c 1.2745,-1.90589 2,-4.20177 2,-6.66667 0,-6.62741 -5.37259,-12 -12,-12 z"
         id="path4232" />
      <path
         inkscape:connector-curvature="0"
         style="fill:#e6e6e6;fill-opacity:1;stroke:none"
         d="m 1027.3333,973.33333 c -6.6274,0 -12,5.37259 -12,12 0,2.4649 0.7255,4.76078 2,6.66667 l 20,0 c 1.2746,-1.90589 2,-4.20177 2,-6.66667 0,-6.62741 -5.3725,-12 -12,-12 z"
         id="path4234" />
      <path
         transform="matrix(0.66666629,0,0,0.66666629,383.33368,318.66703)"
         d="m 944,964 c 0,6.62742 -5.37258,12 -12,12 -6.62742,0 -12,-5.37258 -12,-12 0,-6.62742 5.37258,-12 12,-12 6.62742,0 12,5.37258 12,12 z"
         sodipodi:ry="12"
         sodipodi:rx="12"
         sodipodi:cy="964"
         sodipodi:cx="932"
         id="path4236"
         style="fill:#e6e6e6;fill-opacity:1;stroke:none"
         sodipodi:type="arc" />
      <path
         sodipodi:type="arc"
         style="fill:#e6e6e6;fill-opacity:1;stroke:none"
         id="path4238"
         sodipodi:cx="932"
         sodipodi:cy="964"
         sodipodi:rx="12"
         sodipodi:ry="12"
         d="m 944,964 c 0,6.62742 -5.37258,12 -12,12 -6.62742,0 -12,-5.37258 -12,-12 0,-6.62742 5.37258,-12 12,-12 6.62742,0 12,5.37258 12,12 z"
         transform="matrix(1.3333333,0,0,1.3333333,-227.33371,-310.00038)" />
      <path
         sodipodi:type="arc"
         style="fill:#e6e6e6;fill-opacity:1;stroke:none"
         id="path4240"
         sodipodi:cx="932"
         sodipodi:cy="964"
         sodipodi:rx="12"
         sodipodi:ry="12"
         d="m 944,964 c 0,6.62742 -5.37258,12 -12,12 -6.62742,0 -12,-5.37258 -12,-12 0,-6.62742 5.37258,-12 12,-12 6.62742,0 12,5.37258 12,12 z"
         transform="matrix(0.88888937,0,0,0.88888937,44.221773,101.77732)" />
      <path
         transform="matrix(1.3333333,0,0,1.3333333,-372.66692,-309.33361)"
         d="m 944,964 c 0,6.62742 -5.37258,12 -12,12 -6.62742,0 -12,-5.37258 -12,-12 0,-6.62742 5.37258,-12 12,-12 6.62742,0 12,5.37258 12,12 z"
         sodipodi:ry="12"
         sodipodi:rx="12"
         sodipodi:cy="964"
         sodipodi:cx="932"
         id="path4242"
         style="fill:#e6e6e6;fill-opacity:1;stroke:none"
         sodipodi:type="arc" />
    </g>
    <path
       style="fill:#d6d6d6;fill-opacity:1;stroke:none;display:inline"
       d="m 123.20001,996.36221 10,0 c 0,0 0,12.99999 3,30.99999 l -16,0 c 3,-18 3,-30.99999 3,-30.99999 z"
       id="rect4164"
       inkscape:connector-curvature="0"
       sodipodi:nodetypes="ccccc" />
    <g
       style="display:inline"
       id="g4150"
       transform="translate(-815.79999,60.362177)">
      <path
         sodipodi:nodetypes="scsss"
         inkscape:connector-curvature="0"
         id="path4145"
         d="m 952,932 c 0,6.62742 -6,17.99999 -8,35.99999 -2,-18 -8,-29.37257 -8,-35.99999 0,-6.62742 1.37258,-12 8,-12 6.62742,0 8,5.37258 8,12 z"
         style="fill:#faa518;fill-opacity:1;stroke:none"
         transform="matrix(1,0,0,0.66666667,0,306.66667)" />
      <path
         style="fill:#fad418;fill-opacity:1;stroke:none"
         d="m 948.5,926.5 c 0,2.48529 -3.375,6.75 -4.5,13.5 -1.125,-6.75 -4.5,-11.01471 -4.5,-13.5 0,-2.48529 0.77207,-4.5 4.5,-4.5 3.72793,0 4.5,2.01471 4.5,4.5 z"
         id="path4148"
         inkscape:connector-curvature="0"
         sodipodi:nodetypes="scsss" />
    </g>
    <path
       style="fill:#d8e6ee;fill-opacity:1;stroke:none;display:inline"
       d="m 200.20001,900.36221 c -7.5536,0 -14.2881,3.4824 -18.6875,8.9375 -1.6683,-0.5897 -3.4423,-0.9375 -5.3125,-0.9375 -8.8365,0 -16,7.1634 -16,16 l 87.5938,0 c -1.8536,-9.1284 -9.9184,-16 -19.5938,-16 -3.0694,0 -5.9635,0.7019 -8.5625,1.9375 -4.3605,-6.0217 -11.4344,-9.9375 -19.4375,-9.9375 z"
       id="path4133"
       inkscape:connector-curvature="0" />
    <g
       style="display:inline"
       id="g4296"
       transform="translate(-815.79999,60.362177)">
      <path
         sodipodi:nodetypes="ccccc"
         inkscape:connector-curvature="0"
         id="path6372-4"
         d="m 958.28468,891.39416 9.02189,13.53284 -3.0073,27.0657 -9.0219,-16.54014 z"
         style="fill:#ea2626;fill-opacity:1;stroke:none;display:inline" />
      <path
         style="fill:#f64b4b;fill-opacity:1;stroke:none;display:inline"
         d="m 929.71532,891.39416 -9.02189,13.53284 3.0073,27.0657 9.0219,-16.54014 z"
         id="path6374-4"
         inkscape:connector-curvature="0"
         sodipodi:nodetypes="ccccc" />
      <path
         sodipodi:nodetypes="csccsc"
         inkscape:connector-curvature="0"
         id="rect6367-7"
         d="m 944,832 c 5.26278,5.26278 12.63984,14.41423 15.03649,23.35869 3.2669,12.19219 -3.00729,60.84569 -3.00729,60.84569 -5.26278,2.25547 -17.29198,2.25547 -24.0584,0 0,0 -6.24936,-48.77067 -3.00729,-60.87893 C 931.35614,846.38956 938.73722,837.26278 944,832 z"
         style="fill:#b5bfc4;fill-opacity:1;stroke:none;display:inline" />
      <path
         id="path4128"
         d="m 944,832 0,85.90625 c 4.71243,0.0489 9.29026,-0.51279 12.03125,-1.6875 0,0 6.2669,-48.68281 3,-60.875 C 956.6346,846.39929 949.26278,837.26278 944,832 z"
         style="fill:#a3b0b6;fill-opacity:1;stroke:none;display:inline"
         inkscape:connector-curvature="0" />
      <path
         sodipodi:nodetypes="ccccc"
         inkscape:connector-curvature="0"
         id="path6376-6"
         d="m 944,889.89051 4.51095,19.54744 L 944,935 939.48905,909.43795 z"
         style="fill:#f04040;fill-opacity:1;stroke:none;display:inline" />
      <path
         style="fill:#f64b4b;fill-opacity:1;stroke:none;display:inline"
         d="m 944,832 c 5.26278,5.26278 12.63982,14.41424 15.03649,23.35869 0.90717,3.38558 1.18911,9.45523 0.96351,16.64131 -8,2 -24,2 -32,0 -0.22343,-7.1598 0.0659,-13.32223 0.96351,-16.67455 C 931.35616,846.38956 938.73722,837.26278 944,832 z"
         id="path4113"
         inkscape:connector-curvature="0"
         sodipodi:nodetypes="csccsc" />
      <path
         id="path4123"
         d="m 944,832 0,41.5 c 6,0 12,-0.5 16,-1.5 0.2256,-7.18608 -0.0616,-13.27067 -0.96875,-16.65625 C 956.63458,846.3993 949.26278,837.26278 944,832 z"
         style="fill:#ea2626;fill-opacity:1;stroke:none;display:inline"
         inkscape:connector-curvature="0" />
      <path
         transform="matrix(1.4670408,0,0,1.4670408,415.86704,-458.33391)"
         d="m 365,898 c 0,2.76142 -2.23858,5 -5,5 -2.76142,0 -5,-2.23858 -5,-5 0,-2.76142 2.23858,-5 5,-5 2.76142,0 5,2.23858 5,5 z"
         sodipodi:ry="5"
         sodipodi:rx="5"
         sodipodi:cy="898"
         sodipodi:cx="360"
         id="path6370-1"
         style="fill:#6886ad;fill-opacity:1;stroke:none;display:inline"
         sodipodi:type="arc" />
      <g
         transform="matrix(0.8660254,0.5,-0.5,0.8660254,541.0312,-369.98471)"
         id="g4119">
        <rect
           style="fill:#8ba2bf;fill-opacity:1;stroke:none"
           id="rect4115"
           width="2"
           height="14"
           x="963"
           y="856" />
        <rect
           y="856"
           x="966"
           height="14"
           width="1"
           id="rect4117"
           style="fill:#8ba2bf;fill-opacity:1;stroke:none" />
      </g>
      <path
         inkscape:connector-curvature="0"
         id="path4106"
         d="m 944,851 c -4.41828,0 -8,3.58172 -8,8 0,4.41828 3.58172,8 8,8 4.41828,0 8,-3.58172 8,-8 0,-4.41828 -3.58172,-8 -8,-8 z m 0,2 c 3.31371,0 6,2.68629 6,6 0,3.31371 -2.68629,6 -6,6 -3.31371,0 -6,-2.68629 -6,-6 0,-3.31371 2.68629,-6 6,-6 z"
         style="fill:#d6dcde;fill-opacity:1;stroke:none" />
    </g>
    <path
       inkscape:connector-curvature="0"
       id="path4143"
       d="m 48.199957,932.36221 c -7.5536,0 -14.28808,3.4824 -18.68745,8.9375 -1.66827,-0.5897 -3.44228,-0.9375 -5.3125,-0.9375 -8.83655,0 -16.0000004,7.1634 -16.0000004,16 l 87.5937504,0 c -1.8536,-9.1284 -9.9184,-16 -19.5938,-16 -3.0693,0 -5.9634,0.7019 -8.5625,1.9375 -4.3604,-6.0217 -11.4344,-9.9375 -19.4375,-9.9375 z"
       style="fill:#d8e6ee;fill-opacity:1;stroke:none;display:inline" />
    <g
       id="g4277"
       style="fill:#d6d6d6;fill-opacity:1;display:inline"
       transform="translate(-815.79999,60.362177)">
      <path
         sodipodi:nodetypes="ccccccccccc"
         inkscape:connector-curvature="0"
         id="rect4183"
         d="m 938,962 12,0 23.46122,14.07673 L 982,985 l 31,-9 11,16 -144,0 0,-16 16,11 16,-8 z"
         style="fill:#d6d6d6;fill-opacity:1;stroke:none" />
      <path
         transform="matrix(0.66666667,0,0,0.66666667,312.66666,326.33333)"
         d="m 944,964 c 0,6.62742 -5.37258,12 -12,12 -6.62742,0 -12,-5.37258 -12,-12 0,-6.62742 5.37258,-12 12,-12 6.62742,0 12,5.37258 12,12 z"
         sodipodi:ry="12"
         sodipodi:rx="12"
         sodipodi:cy="964"
         sodipodi:cx="932"
         id="path4154"
         style="fill:#d6d6d6;fill-opacity:1;stroke:none"
         sodipodi:type="arc" />
      <path
         transform="matrix(0.66666667,0,0,0.66666667,330.66666,324.33333)"
         d="m 944,964 c 0,6.62742 -5.37258,12 -12,12 -6.62742,0 -12,-5.37258 -12,-12 0,-6.62742 5.37258,-12 12,-12 6.62742,0 12,5.37258 12,12 z"
         sodipodi:ry="12"
         sodipodi:rx="12"
         sodipodi:cy="964"
         sodipodi:cx="932"
         id="path4158"
         style="fill:#d6d6d6;fill-opacity:1;stroke:none"
         sodipodi:type="arc" />
      <path
         sodipodi:type="arc"
         style="fill:#d6d6d6;fill-opacity:1;stroke:none"
         id="path4160"
         sodipodi:cx="932"
         sodipodi:cy="964"
         sodipodi:rx="12"
         sodipodi:ry="12"
         d="m 944,964 c 0,6.62742 -5.37258,12 -12,12 -6.62742,0 -12,-5.37258 -12,-12 0,-6.62742 5.37258,-12 12,-12 6.62742,0 12,5.37258 12,12 z"
         transform="matrix(0.4999997,0,0,0.4999997,459.00028,488.00029)" />
      <path
         transform="matrix(0.625,0,0,0.625,376.5,372)"
         d="m 944,964 c 0,6.62742 -5.37258,12 -12,12 -6.62742,0 -12,-5.37258 -12,-12 0,-6.62742 5.37258,-12 12,-12 6.62742,0 12,5.37258 12,12 z"
         sodipodi:ry="12"
         sodipodi:rx="12"
         sodipodi:cy="964"
         sodipodi:cx="932"
         id="path4162"
         style="fill:#d6d6d6;fill-opacity:1;stroke:none"
         sodipodi:type="arc" />
      <path
         sodipodi:type="arc"
         style="fill:#d6d6d6;fill-opacity:1;stroke:none"
         id="path4167"
         sodipodi:cx="932"
         sodipodi:cy="964"
         sodipodi:rx="12"
         sodipodi:ry="12"
         d="m 944,964 c 0,6.62742 -5.37258,12 -12,12 -6.62742,0 -12,-5.37258 -12,-12 0,-6.62742 5.37258,-12 12,-12 6.62742,0 12,5.37258 12,12 z"
         transform="matrix(0.625,0,0,0.625,386,374.5)" />
      <path
         id="path4169"
         d="m 974,976 c -4.97056,0 -9,4.02944 -9,9 0,2.83613 1.32499,5.35037 3.375,7 l 11.25,0 c 2.05001,-1.64963 3.375,-4.16387 3.375,-7 0,-4.97056 -4.02944,-9 -9,-9 z"
         style="fill:#d6d6d6;fill-opacity:1;stroke:none"
         inkscape:connector-curvature="0" />
      <path
         transform="matrix(0.74999993,0,0,0.74999993,221.00006,257.00007)"
         d="m 944,964 c 0,6.62742 -5.37258,12 -12,12 -6.62742,0 -12,-5.37258 -12,-12 0,-6.62742 5.37258,-12 12,-12 6.62742,0 12,5.37258 12,12 z"
         sodipodi:ry="12"
         sodipodi:rx="12"
         sodipodi:cy="964"
         sodipodi:cx="932"
         id="path4171"
         style="fill:#d6d6d6;fill-opacity:1;stroke:none"
         sodipodi:type="arc" />
      <path
         id="path4173"
         d="m 908,979 c -4.14214,0 -7.5,3.35786 -7.5,7.5 0,2.17633 0.9256,4.12996 2.40625,5.5 l 10.1875,0 c 1.48065,-1.37004 2.40625,-3.32367 2.40625,-5.5 0,-4.14214 -3.35786,-7.5 -7.5,-7.5 z"
         style="fill:#d6d6d6;fill-opacity:1;stroke:none"
         inkscape:connector-curvature="0" />
      <path
         id="path4179"
         d="m 894,977 c -5.52284,0 -10,4.47716 -10,10 0,1.817 0.49674,3.53157 1.34375,5 l 17.3125,0 C 903.50326,990.53157 904,988.817 904,987 c 0,-5.52284 -4.47716,-10 -10,-10 z"
         style="fill:#d6d6d6;fill-opacity:1;stroke:none"
         inkscape:connector-curvature="0" />
      <path
         inkscape:connector-curvature="0"
         id="path4186"
         d="m 868,978 c -4.97056,0 -9,4.02944 -9,9 0,1.84867 0.54412,3.57058 1.5,5 l 15,0 c 0.95588,-1.42942 1.5,-3.15133 1.5,-5 0,-4.97056 -4.02944,-9 -9,-9 z"
         style="fill:#d6d6d6;fill-opacity:1;stroke:none" />
      <path
         inkscape:connector-curvature="0"
         id="path4188"
         d="m 1020,978 c -4.9706,0 -9,4.02944 -9,9 0,1.84867 0.5441,3.57058 1.5,5 l 15,0 c 0.9559,-1.42942 1.5,-3.15133 1.5,-5 0,-4.97056 -4.0294,-9 -9,-9 z"
         style="fill:#d6d6d6;fill-opacity:1;stroke:none" />
      <path
         sodipodi:type="arc"
         style="fill:#d6d6d6;fill-opacity:1;stroke:none"
         id="path4190"
         sodipodi:cx="932"
         sodipodi:cy="964"
         sodipodi:rx="12"
         sodipodi:ry="12"
         d="m 944,964 c 0,6.62742 -5.37258,12 -12,12 -6.62742,0 -12,-5.37258 -12,-12 0,-6.62742 5.37258,-12 12,-12 6.62742,0 12,5.37258 12,12 z"
         transform="matrix(0.49999972,0,0,0.49999972,522.00026,502.00027)" />
      <path
         transform="translate(76.99972,15.499713)"
         d="m 944,964 c 0,6.62742 -5.37258,12 -12,12 -6.62742,0 -12,-5.37258 -12,-12 0,-6.62742 5.37258,-12 12,-12 6.62742,0 12,5.37258 12,12 z"
         sodipodi:ry="12"
         sodipodi:rx="12"
         sodipodi:cy="964"
         sodipodi:cx="932"
         id="path4192"
         style="fill:#d6d6d6;fill-opacity:1;stroke:none"
         sodipodi:type="arc" />
      <path
         transform="matrix(0.66666703,0,0,0.66666703,265.66633,332.33299)"
         d="m 944,964 c 0,6.62742 -5.37258,12 -12,12 -6.62742,0 -12,-5.37258 -12,-12 0,-6.62742 5.37258,-12 12,-12 6.62742,0 12,5.37258 12,12 z"
         sodipodi:ry="12"
         sodipodi:rx="12"
         sodipodi:cy="964"
         sodipodi:cx="932"
         id="path4194"
         style="fill:#d6d6d6;fill-opacity:1;stroke:none"
         sodipodi:type="arc" />
      <path
         sodipodi:type="arc"
         style="fill:#d6d6d6;fill-opacity:1;stroke:none"
         id="path4196"
         sodipodi:cx="932"
         sodipodi:cy="964"
         sodipodi:rx="12"
         sodipodi:ry="12"
         d="m 944,964 c 0,6.62742 -5.37258,12 -12,12 -6.62742,0 -12,-5.37258 -12,-12 0,-6.62742 5.37258,-12 12,-12 6.62742,0 12,5.37258 12,12 z"
         transform="translate(-54.000193,15.999792)" />
      <path
         transform="matrix(0.49999972,0,0,0.49999972,529.00026,496.00027)"
         d="m 944,964 c 0,6.62742 -5.37258,12 -12,12 -6.62742,0 -12,-5.37258 -12,-12 0,-6.62742 5.37258,-12 12,-12 6.62742,0 12,5.37258 12,12 z"
         sodipodi:ry="12"
         sodipodi:rx="12"
         sodipodi:cy="964"
         sodipodi:cx="932"
         id="path4264"
         style="fill:#d6d6d6;fill-opacity:1;stroke:none"
         sodipodi:type="arc" />
    </g>
  </g>
</svg>
